HIERARCHY
ROOT Hips
{
	OFFSET 0.00000 0.00000 0.00000
	CHANNELS 6 Xposition Yposition Zposition Zrotation Yrotation Xrotation 
	JOINT LHipJoint
	{
		OFFSET 0 0 0
		CHANNELS 3 Zrotation Yrotation Xrotation
		JOINT LeftHip
		{
			OFFSET 1.55766 -1.60504 1.11378
			CHANNELS 3 Zrotation Yrotation Xrotation
			JOINT LeftKnee
			{
				OFFSET 2.29047 -6.29302 0.00000
				CHANNELS 3 Zrotation Yrotation Xrotation
				JOINT LeftAnkle
				{
					OFFSET 2.52265 -6.93093 0.00000
					CHANNELS 3 Zrotation Yrotation Xrotation
					JOINT LeftToe
					{
						OFFSET 0.17633 -0.48446 2.02656
						CHANNELS 3 Zrotation Yrotation Xrotation
						End Site
						{
							OFFSET 0.00000 -0.00000 1.04989
						}
					}
				}
			}
		}
	}
	JOINT RHipJoint
	{
		OFFSET 0 0 0
		CHANNELS 3 Zrotation Yrotation Xrotation
		JOINT RightHip
		{
			OFFSET -1.48599 -1.60504 1.11378
			CHANNELS 3 Zrotation Yrotation Xrotation
			JOINT RightKnee
			{
				OFFSET -2.27280 -6.24448 0.00000
				CHANNELS 3 Zrotation Yrotation Xrotation
				JOINT RightAnkle
				{
					OFFSET -2.50834 -6.89161 0.00000
					CHANNELS 3 Zrotation Yrotation Xrotation
					JOINT RightToe
					{
						OFFSET -0.26967 -0.74090 2.08741
						CHANNELS 3 Zrotation Yrotation Xrotation
						End Site
						{
							OFFSET -0.00000 -0.00000 1.10614
						}
					}
				}
			}
		}
	}
	JOINT lowerback
	{
		OFFSET 0 0 0
		CHANNELS 3 Zrotation Yrotation Xrotation
		JOINT Chest
		{
			OFFSET 0.06481 2.02437 -0.08472
			CHANNELS 3 Zrotation Yrotation Xrotation
			JOINT Chest2
			{
				OFFSET 0.00015 1.96711 0.18069
				CHANNELS 3 Zrotation Yrotation Xrotation
				JOINT lowerneck
				{
					OFFSET 0 0 0
					CHANNELS 3 Zrotation Yrotation Xrotation
					JOINT Neck
					{
						OFFSET -0.29961 1.68293 -0.13041
						CHANNELS 3 Zrotation Yrotation Xrotation
						JOINT Head
						{
							OFFSET 0.59697 1.61501 -0.14669
							CHANNELS 3 Zrotation Yrotation Xrotation
							End Site
							{
								OFFSET 0.22973 1.74906 -0.10148
							}
						}
					}
				}
				JOINT LeftCollar
				{
					OFFSET 0 0 0
					CHANNELS 3 Zrotation Yrotation Xrotation
					JOINT LeftShoulder
					{
						OFFSET 3.37968 1.02893 0.31147
CHANNELS 3 Zrotation Xrotation Yrotation
						JOINT LeftElbow
						{
OFFSET 0 -5.198070 -0.000000
CHANNELS 3 Zrotation Xrotation Yrotation
							JOINT LeftWrist
							{
OFFSET 0 -3.093700 -0.000000
CHANNELS 3 Zrotation Xrotation Yrotation
								JOINT lhand
								{
									OFFSET 0 0 0
CHANNELS 3 Zrotation Xrotation Yrotation
									JOINT LFingers
									{
OFFSET 0 -0.672630 -0.000000
CHANNELS 3 Zrotation Xrotation Yrotation
										End Site
										{
OFFSET 0 -0.542290 -0.000000
										}
									}
								}
								JOINT LThumb
								{
OFFSET 0 0.000000 0.000000
CHANNELS 3 Zrotation Xrotation Yrotation
									End Site
									{
OFFSET 0 -0.550570 0.550570
									}
								}
							}
						}
					}
				}
				JOINT RightCollar
				{
					OFFSET 0 0 0
					CHANNELS 3 Zrotation Yrotation Xrotation
					JOINT RightShoulder
					{
						OFFSET -3.38254 0.96355 -0.16120
CHANNELS 3 Zrotation Xrotation Yrotation
						JOINT RightElbow
						{
OFFSET 0 -5.452220 -0.000000
CHANNELS 3 Zrotation Xrotation Yrotation
							JOINT RightWrist
							{
OFFSET 0 -3.012840 -0.000000
CHANNELS 3 Zrotation Xrotation Yrotation
								JOINT rhand
								{
									OFFSET 0 0 0
CHANNELS 3 Zrotation Xrotation Yrotation
									JOINT RFingers
									{
OFFSET 0 -0.622300 -0.000000
CHANNELS 3 Zrotation Xrotation Yrotation
										End Site
										{
OFFSET 0 -0.501710 -0.000000
										}
									}
								}
								JOINT RThumb
								{
OFFSET 0 0.000000 0.000000
CHANNELS 3 Zrotation Xrotation Yrotation
									End Site
									{
OFFSET 0 -0.509370 0.509370
									}
								}
							}
						}
					}
				}
			}
		}
	}
}
MOTION
Frames: 10
Frame Time: 0.008333333333333333
4.871579 20.756217 10.398568 -6.130520 21.347359 18.757037 0.000000 0.000000 0.000000 -21.181541 7.425337 -33.507957 2.772202 10.316769 30.008809 0.869273 11.745177 -25.483039 0.355242 -3.829248 -10.596834 0.000000 0.000000 0.000000 31.014857 -0.125344 -38.128091 -2.756838 -10.290480 29.922712 -0.666426 1.670765 -14.942507 -0.424242 4.179949 -11.583666 -0.652051 0.586721 -3.354126 -1.078935 0.793437 -9.037382 -0.797576 0.430747 -7.553307 -29.873387 -12.116465 21.148263 43.993659 -23.217771 -6.040389 22.034911 -14.381612 5.024410 0.000000 0.000000 0.000000 15.003581 11.360285 -29.583616 20.031886 -30.680506 5.547632 21.713440 -44.819537 12.394821 0.000000 0.000000 0.000000 -7.125000 0.000000 0.000000 -3.834785 16.690020 -2.577819 0.000000 0.000000 0.000000 2.758071 8.243900 2.841647 -10.542368 -17.583422 -1.635053 -11.204589 37.160286 1.908110 0.000000 0.000000 0.000000 7.125000 0.000000 0.000000 12.290477 31.767117 4.060829
4.878143 20.749263 10.433126 -6.051030 20.558898 18.860248 0.000000 0.000000 0.000000 -21.390582 7.810532 -33.475046 2.768520 10.310464 29.988153 0.853752 12.113406 -25.704120 0.364198 -3.876815 -10.730347 0.000000 0.000000 0.000000 31.016422 -0.113900 -37.867170 -2.704893 -10.201242 29.630931 -0.662247 2.206461 -14.779106 -0.388393 4.002093 -11.082684 -0.514085 0.471304 -3.531096 -1.079186 0.638863 -9.040067 -0.867343 0.342877 -7.453594 -29.949502 -12.051825 20.942178 43.722704 -23.202709 -5.602599 21.858328 -14.322118 5.122090 0.000000 0.000000 0.000000 14.881045 11.085066 -29.815319 20.311009 -31.015215 5.690732 21.295066 -44.786379 12.492992 0.000000 0.000000 0.000000 -7.125000 0.000000 0.000000 -4.128936 16.625598 -2.782238 0.000000 0.000000 0.000000 2.679465 8.554788 2.617575 -10.433158 -17.414259 -1.602139 -10.732600 37.667592 1.926934 0.000000 0.000000 0.000000 7.125000 0.000000 0.000000 12.665089 31.772652 4.188306
4.885249 20.743719 10.469931 -5.940460 19.795088 18.942662 0.000000 0.000000 0.000000 -21.630697 8.199129 -33.370517 2.753895 10.285549 29.906452 0.829186 12.500526 -25.879807 0.380588 -3.961995 -10.969805 0.000000 0.000000 0.000000 31.002095 -0.215004 -37.700328 -2.675682 -10.150574 29.465709 -0.652532 2.935834 -14.545857 -0.338080 3.734875 -10.332123 -0.399511 0.360195 -3.690306 -1.076215 0.489199 -9.031339 -0.921747 0.259275 -7.352952 -30.029379 -11.992612 20.727145 43.432177 -23.186795 -5.172352 21.668680 -14.259650 5.215327 0.000000 0.000000 0.000000 14.700175 10.763766 -29.957756 20.559600 -31.310586 5.819463 20.925329 -44.661069 12.572756 0.000000 0.000000 0.000000 -7.125000 0.000000 0.000000 -4.388131 16.575775 -2.962785 0.000000 0.000000 0.000000 2.556091 8.856188 2.520392 -10.351785 -17.287975 -1.577930 -10.271009 38.027951 1.930896 0.000000 0.000000 0.000000 7.125000 0.000000 0.000000 13.029089 31.763493 4.317192
4.892668 20.739304 10.508224 -5.814440 19.050479 19.003912 0.000000 0.000000 0.000000 -21.876702 8.561567 -33.197692 2.732361 10.248653 29.785632 0.800081 12.908164 -26.048001 0.397428 -4.047720 -11.211012 0.000000 0.000000 0.000000 30.958056 -0.348978 -37.582973 -2.664736 -10.131389 29.403269 -0.637555 3.738954 -14.279962 -0.287605 3.447584 -9.527483 -0.300130 0.254859 -3.827718 -1.068585 0.346939 -9.017123 -0.963867 0.180576 -7.259510 -30.107365 -11.934741 20.509172 43.128838 -23.163409 -4.753752 21.472831 -14.192195 5.299763 0.000000 0.000000 0.000000 14.462071 10.400403 -30.000302 20.761433 -31.548738 5.924659 20.577631 -44.405701 12.659283 0.000000 0.000000 0.000000 -7.125000 0.000000 0.000000 -4.631996 16.516802 -3.134417 0.000000 0.000000 0.000000 2.404004 9.160148 2.518294 -10.296403 -17.201866 -1.561470 -9.824541 38.259956 1.926926 0.000000 0.000000 0.000000 7.125000 0.000000 0.000000 13.379499 31.746676 4.444584
4.899613 20.735110 10.546914 -5.696349 18.317172 19.042641 0.000000 0.000000 0.000000 -22.091603 8.860167 -32.970272 2.709984 10.210054 29.659520 0.767779 13.357686 -26.241473 0.410203 -4.111606 -11.390922 0.000000 0.000000 0.000000 30.871461 -0.404060 -37.463725 -2.668040 -10.137218 29.422357 -0.619249 4.490817 -14.021043 -0.248547 3.207753 -8.857681 -0.207532 0.158712 -3.930450 -1.049349 0.217156 -9.006622 -0.991151 0.109008 -7.190619 -30.177583 -11.871074 20.304351 42.826434 -23.122821 -4.352313 21.269611 -14.116771 5.367102 0.000000 0.000000 0.000000 14.163169 9.998837 -29.938506 20.909527 -31.722555 6.002330 20.261946 -44.036333 12.761129 0.000000 0.000000 0.000000 -7.125000 0.000000 0.000000 -4.853836 16.438829 -3.293789 0.000000 0.000000 0.000000 2.223722 9.476490 2.616954 -10.270015 -17.160770 -1.553675 -9.364051 38.337697 1.927707 0.000000 0.000000 0.000000 7.125000 0.000000 0.000000 13.741208 31.733969 4.575169
4.905529 20.729999 10.584963 -5.605921 17.587707 19.055682 0.000000 0.000000 0.000000 -22.242425 9.050994 -32.701536 2.695371 10.184760 29.577025 0.734320 13.875482 -26.508817 0.414054 -4.130609 -11.444335 0.000000 0.000000 0.000000 30.730456 -0.284554 -37.292872 -2.682131 -10.161725 29.502022 -0.600796 5.096039 -13.801546 -0.227443 3.069671 -8.472700 -0.107911 0.078084 -3.989727 -1.017237 0.108370 -8.997007 -1.010114 0.047897 -7.147638 -30.022669 -11.831784 20.146827 42.837457 -23.010359 -4.150024 20.664162 -13.992236 5.311512 0.000000 0.000000 0.000000 13.818036 9.585708 -29.802865 21.048770 -31.885203 6.075718 19.997429 -43.646754 12.879017 0.000000 0.000000 0.000000 -7.125000 0.000000 0.000000 -5.040456 16.339141 -3.432383 0.000000 0.000000 0.000000 2.030246 9.779747 2.744090 -10.266627 -17.155591 -1.552664 -8.931170 38.320665 1.900099 0.000000 0.000000 0.000000 7.125000 0.000000 0.000000 14.076371 31.694005 4.706930
4.910871 20.723475 10.622439 -5.554964 16.851290 19.044898 0.000000 0.000000 0.000000 -22.324138 9.145806 -32.411732 2.691722 10.178473 29.556671 0.700670 14.463348 -26.861572 0.409091 -4.106066 -11.375185 0.000000 0.000000 0.000000 30.570983 -0.021430 -37.067799 -2.701505 -10.195428 29.611874 -0.584388 5.579247 -13.624454 -0.218729 3.010767 -8.308636 0.014005 0.015329 -4.012517 -0.973509 0.023968 -8.987450 -1.030153 -0.002188 -7.125542 -30.081246 -11.761087 19.946726 42.535281 -22.946304 -3.782874 20.502727 -13.908870 5.361440 0.000000 0.000000 0.000000 13.447189 9.193981 -29.630935 21.217473 -32.081276 6.165088 19.782975 -43.323874 12.992368 0.000000 0.000000 0.000000 -7.125000 0.000000 0.000000 -5.192014 16.239768 -3.547616 0.000000 0.000000 0.000000 1.833618 10.059671 2.853419 -10.271279 -17.162780 -1.554006 -8.546063 38.283685 1.841982 0.000000 0.000000 0.000000 7.125000 0.000000 0.000000 14.368776 31.625633 4.834705
4.915850 20.715412 10.660285 -5.538296 16.096531 19.014589 0.000000 0.000000 0.000000 -22.350433 9.167420 -32.110989 2.700093 10.193027 29.604143 0.669965 15.102997 -27.308798 0.394124 -4.031053 -11.164105 0.000000 0.000000 0.000000 30.410309 0.348289 -36.798027 -2.725372 -10.236690 29.746487 -0.571625 5.969684 -13.499021 -0.216513 2.995475 -8.266109 0.151611 -0.028260 -4.010857 -0.922797 -0.034473 -8.974666 -1.052388 -0.040102 -7.113809 -30.129694 -11.692592 19.734993 42.246965 -22.875829 -3.428615 20.348988 -13.823087 5.409657 0.000000 0.000000 0.000000 13.057179 8.838498 -29.429281 21.433319 -32.330563 6.280091 19.644926 -43.090977 13.081019 0.000000 0.000000 0.000000 -7.125000 0.000000 0.000000 -5.289831 16.159485 -3.624273 0.000000 0.000000 0.000000 1.647236 10.315900 2.941793 -10.281864 -17.179331 -1.557196 -8.265142 38.239112 1.751691 0.000000 0.000000 0.000000 7.125000 0.000000 0.000000 14.573992 31.528845 4.942834
4.920823 20.705945 10.698576 -5.541473 15.323094 18.969808 0.000000 0.000000 0.000000 -22.349183 9.148070 -31.816087 2.721389 10.229808 29.724102 0.645661 15.757555 -27.839957 0.371216 -3.913266 -10.832867 0.000000 0.000000 0.000000 30.258262 0.769972 -36.505694 -2.754269 -10.286125 29.908525 -0.563892 6.298919 -13.436673 -0.216876 2.997733 -8.272346 0.293802 -0.055629 -3.982272 -0.864995 -0.070666 -8.958664 -1.070375 -0.066966 -7.113728 -30.184206 -11.624581 19.509272 41.979327 -22.801379 -3.087592 20.209598 -13.736896 5.461881 0.000000 0.000000 0.000000 12.647674 8.561779 -29.226480 21.745471 -32.687807 6.447973 19.595429 -42.996843 13.120261 0.000000 0.000000 0.000000 -7.125000 0.000000 0.000000 -5.325082 16.122867 -3.652859 0.000000 0.000000 0.000000 1.456631 10.547419 3.062516 -10.305246 -17.215675 -1.564098 -8.052552 38.139869 1.673606 0.000000 0.000000 0.000000 7.125000 0.000000 0.000000 14.727403 31.446340 5.028188
4.926682 20.695544 10.737107 -5.561694 14.548558 18.915464 0.000000 0.000000 0.000000 -22.338201 9.148979 -31.549116 2.752680 10.283535 29.899883 0.631688 16.361821 -28.405189 0.345601 -3.777224 -10.450745 0.000000 0.000000 0.000000 30.134454 1.174511 -36.217970 -2.787408 -10.342631 30.093644 -0.560521 6.619388 -13.430864 -0.217144 2.999895 -8.278298 0.460661 -0.072071 -3.953731 -0.806713 -0.091930 -8.927256 -1.101835 -0.087937 -7.096806 -30.239748 -11.566827 19.252609 41.727068 -22.733687 -2.754206 20.073920 -13.653101 5.525036 0.000000 0.000000 0.000000 12.233401 8.332788 -29.034990 22.141008 -33.135649 6.662951 19.580295 -43.018879 13.136065 0.000000 0.000000 0.000000 -7.125000 0.000000 0.000000 -5.336010 16.107795 -3.662178 0.000000 0.000000 0.000000 1.269573 10.740215 3.228672 -10.344043 -17.275946 -1.575555 -7.889281 37.963315 1.628026 0.000000 0.000000 0.000000 7.125000 0.000000 0.000000 14.847313 31.397084 5.089909
